<?xml version="1.0" encoding="UTF-8" standalone="no"?>
<svg
   xmlns:dc="http://purl.org/dc/elements/1.1/"
   xmlns:cc="http://creativecommons.org/ns#"
   xmlns:rdf="http://www.w3.org/1999/02/22-rdf-syntax-ns#"
   xmlns:svg="http://www.w3.org/2000/svg"
   xmlns="http://www.w3.org/2000/svg"
   xmlns:sodipodi="http://sodipodi.sourceforge.net/DTD/sodipodi-0.dtd"
   xmlns:inkscape="http://www.inkscape.org/namespaces/inkscape"
   xml:space="preserve"
   id="svg2"
   viewBox="0 0 43.66459 12.37425"
   height="283.39902"
   width="1000"
   version="1.1"
   sodipodi:docname="Valve_old_logo.svg"
   inkscape:version="0.92.3 (2405546, 2018-03-11)"><sodipodi:namedview
     pagecolor="#ffffff"
     bordercolor="#666666"
     borderopacity="1"
     objecttolerance="10"
     gridtolerance="10"
     guidetolerance="10"
     inkscape:pageopacity="0"
     inkscape:pageshadow="2"
     inkscape:window-width="1366"
     inkscape:window-height="705"
     id="namedview12"
     showgrid="false"
     inkscape:zoom="0.32162836"
     inkscape:cx="167.89564"
     inkscape:cy="149.99937"
     inkscape:window-x="-8"
     inkscape:window-y="-8"
     inkscape:window-maximized="1"
     inkscape:current-layer="svg2" /><defs
     id="defs28" /><path
     style="fill:#000000;fill-opacity:1;stroke-width:0.94773871"
     id="path13"
     d="M 0.00164434,-1.2594915e-4 43.66459,0.03440491 V 12.374376 c 0,0 -29.111371,0 -43.66459,0 C 0,8.2832608 0.00164434,-1.2594915e-4 0.00164434,-1.2594915e-4 Z M 1.2587413,1.3260307 v 9.7871373 c 0,0 27.4308577,0 41.1471077,0 0,-3.2640454 0,-6.5247693 0,-9.7871373 -13.71625,0 -41.1471077,0 -41.1471077,0"
     inkscape:connector-curvature="0" /><path
     style="fill:#000000;fill-opacity:1;stroke-width:0.94773871"
     id="path23"
     d="M 3.8099326,2.5839498 H 5.2454402 L 6.6431282,8.0727519 8.0054627,2.5839498 H 9.5100321 L 7.3057966,9.8568934 H 5.977171 L 3.8099326,2.5839498"
     inkscape:connector-curvature="0" /><path
     style="fill:#000000;fill-opacity:1;stroke-width:0.94773871"
     id="path15"
     d="m 13.703918,2.5839498 h 1.958407 l 2.062001,7.2729436 H 16.256754 L 15.766741,8.0390437 h -2.167238 c 0,0 -0.375732,1.4618497 -0.455482,1.7824957 -0.43575,0.03454 -1.502104,0 -1.502104,0 z m 0.94385,1.2250323 -0.76955,3.0749133 h 1.608164 L 14.647768,3.8089821"
     inkscape:connector-curvature="0" /><path
     style="fill:#000000;fill-opacity:1;stroke-width:0.94773871"
     id="path21"
     d="m 21.290896,2.5839498 c 0.462882,0 0.933163,0 1.399333,0 0,2.0159592 0,4.0343849 0,6.0479102 1.010446,0 2.026647,0 3.038737,0 0,0.4119071 0,0.8106604 0,1.2242104 -1.491414,0 -2.98283,0 -4.473422,0 0,-2.4057004 -0.06085,-4.9281158 0.03535,-7.2721206"
     inkscape:connector-curvature="0" /><path
     style="fill:#000000;fill-opacity:1;stroke-width:0.94773871"
     id="path19"
     d="m 27.477721,2.5839498 h 1.469216 l 1.396866,5.4197404 1.363979,-5.4197404 h 1.468395 L 30.972763,9.8568934 H 29.678669 L 27.477721,2.5839498"
     inkscape:connector-curvature="0" /><path
     style="fill:#000000;fill-opacity:1;stroke-width:0.94773871"
     id="path17"
     d="m 36.216559,2.5839498 c 0,0 2.004448,0 3.007495,0 0,0.3124244 0,0.9446725 0,0.9446725 h -1.95923 c 0,0 0,0.6971997 0,1.0474438 0.594429,0 1.188857,0 1.784108,0 0,0.3116022 0,0.6330703 0,0.9446725 -0.595251,0 -1.189679,0 -1.784108,0 0,0.3592881 0,0.7210426 0,1.0819749 0.653625,0 1.95923,0 1.95923,0 V 7.5482079 H 36.18285 l 0.03371,-4.9642581"
     inkscape:connector-curvature="0" /><metadata
     id="metadata3344"><rdf:RDF><cc:Work
         rdf:about=""><dc:title /><dc:format>image/svg+xml</dc:format><dc:type
           rdf:resource="http://purl.org/dc/dcmitype/StillImage" /></cc:Work></rdf:RDF></metadata></svg>